<?xml version="1.0" standalone="no"?>
<!DOCTYPE svg PUBLIC "-//W3C//DTD SVG 20010904//EN"
 "http://www.w3.org/TR/2001/REC-SVG-20010904/DTD/svg10.dtd">
<svg version="1.0" xmlns="http://www.w3.org/2000/svg"
 width="260.000000pt" height="260.000000pt" viewBox="0 0 260.000000 260.000000"
 preserveAspectRatio="xMidYMid meet">
<metadata>
Created by potrace 1.14, written by Peter Selinger 2001-2017
</metadata>
<g transform="translate(0.000000,260.000000) scale(0.100000,-0.100000)"
fill="#000000" stroke="none">
<path d="M790 2163 c-35 -13 -72 -47 -90 -83 -19 -38 -20 -61 -20 -585 l0
-545 -165 0 -165 0 0 71 c0 40 -4 69 -9 67 -23 -8 -340 -274 -340 -286 -1 -11
316 -282 340 -290 5 -2 9 27 9 67 l0 71 164 0 164 0 4 -60 c6 -81 45 -132 109
-142 24 -3 377 -7 785 -7 l740 -1 31 32 c34 37 47 59 57 100 l6 28 -70 0 -70
0 0 45 0 45 -135 0 -135 0 0 -45 0 -45 -110 0 -110 0 0 50 0 50 315 0 c273 0
315 2 315 15 0 13 -42 15 -315 15 l-315 0 0 160 0 160 315 0 315 0 0 478 c0
297 -4 491 -10 514 -14 48 -55 97 -97 114 -26 11 -168 14 -765 13 -403 0 -740
-3 -748 -6z m625 -550 c76 -192 148 -374 161 -405 l23 -58 -82 0 -82 0 -35 93
-35 92 -166 3 -166 2 -34 -95 -33 -95 -78 0 c-43 0 -78 2 -78 5 0 6 270 710
295 773 l14 32 80 0 79 0 137 -347z m589 90 c84 -138 160 -262 169 -275 15
-21 16 -4 16 255 l1 277 70 0 70 0 0 -405 0 -406 -77 3 -78 3 -160 262 c-88
145 -163 263 -167 263 -5 0 -8 -119 -8 -265 l0 -265 -70 0 -70 0 0 405 0 406
76 -3 76 -3 152 -252z m-816 -763 c86 -72 157 -135 157 -140 0 -5 -72 -68
-160 -141 l-160 -132 -3 66 -3 67 -164 0 -165 0 0 60 0 60 45 0 c38 0 45 3 45
20 0 17 -7 20 -45 20 l-45 0 0 60 0 60 165 0 165 0 0 65 c0 36 2 65 5 65 3 0
76 -59 163 -130z m552 -145 l0 -134 -35 21 c-48 28 -100 20 -137 -22 -16 -17
-28 -36 -28 -44 0 -9 -8 -12 -25 -8 -24 4 -25 7 -25 86 0 60 6 91 20 121 11
22 18 31 14 20 -3 -11 -8 -37 -11 -57 -6 -38 -5 -38 29 -38 26 0 39 7 56 30
13 18 32 30 45 30 35 0 48 14 54 56 7 55 -10 68 -86 62 -33 -2 -58 -1 -55 4 3
4 45 8 95 8 l89 0 0 -135z m-1310 5 c0 -6 -37 -10 -90 -10 -53 0 -90 4 -90 10
0 6 37 10 90 10 53 0 90 -4 90 -10z m250 0 c0 -5 -20 -10 -45 -10 -25 0 -45 5
-45 10 0 6 20 10 45 10 25 0 45 -4 45 -10z m1560 -185 l0 -45 -100 0 -100 0 0
45 0 45 100 0 100 0 0 -45z m-540 15 c42 -42 7 -120 -53 -120 -30 0 -67 39
-67 70 0 64 75 95 120 50z"/>
<path d="M1182 1753 c-40 -111 -102 -285 -102 -289 0 -2 52 -4 115 -4 67 0
115 4 115 10 0 14 -101 294 -110 303 -4 5 -12 -4 -18 -20z"/>
<path d="M930 800 c0 -19 7 -20 95 -20 88 0 95 1 95 20 0 19 -7 20 -95 20 -88
0 -95 -1 -95 -20z"/>
<path d="M1628 619 c-22 -13 -24 -67 -3 -75 8 -4 26 -3 40 0 20 5 25 13 25 36
0 19 -7 33 -19 40 -23 12 -22 12 -43 -1z"/>
</g>
</svg>
